<svg width="21" height="41" viewBox="0 0 21 41" fill="none" xmlns="http://www.w3.org/2000/svg">
<g clip-path="url(#clip0_1_804)">
<path d="M15.187 15.7565C17.3047 15.7565 19.0195 14.0642 19.0195 11.9745C19.0195 10.436 18.0841 9.10268 16.733 8.51294C16.1874 8.65397 15.6547 8.82063 15.187 9.00012C13.784 9.5514 12.5368 10.1027 11.6534 10.5258C11.4715 10.9745 11.3676 11.4617 11.3676 11.9617C11.3676 14.0514 13.0824 15.7437 15.2 15.7437L15.187 15.7565ZM15.187 11.1411C15.6547 11.1411 16.0445 11.5129 16.0445 11.9873C16.0445 12.4617 15.6677 12.8335 15.187 12.8335C14.7064 12.8335 14.3296 12.4617 14.3296 11.9873C14.3296 11.5129 14.7064 11.1411 15.187 11.1411Z" fill="white"/>
<path d="M10.2632 16.7178L11.3285 15.2819C11.4844 14.9871 11.4325 14.6409 11.1986 14.4101L10.2632 13.4871L9.32785 14.4101C9.09401 14.6409 9.04204 14.9871 9.19794 15.2819L10.2632 16.7178Z" fill="white"/>
<path d="M5.40446 9C4.97574 8.82051 4.44309 8.65385 3.88445 8.5C2.53334 9.07692 1.58496 10.4103 1.58496 11.9615C1.58496 14.0513 3.29984 15.7436 5.41745 15.7436C7.53506 15.7436 9.24993 14.0513 9.24993 11.9615C9.24993 11.4744 9.15899 11.0128 8.97711 10.5769C8.15865 10.1923 6.97643 9.65385 5.41745 8.98718L5.40446 9ZM5.40446 12.8077C4.93676 12.8077 4.54702 12.4359 4.54702 11.9615C4.54702 11.4872 4.92377 11.1154 5.40446 11.1154C5.88514 11.1154 6.26189 11.4872 6.26189 11.9615C6.26189 12.4359 5.88514 12.8077 5.40446 12.8077Z" fill="white"/>
<path d="M6.46976 34.5768C9.10703 31.846 10.744 27.7435 10.744 23.8973C10.744 23.3076 10.614 22.0383 10.614 22.0383H10.2633C9.79558 22.0383 9.34088 22.0127 8.88617 21.9486C4.36514 21.3589 0.753506 17.8973 0 13.4871V37.6922C0.805472 37.6665 1.59795 37.5255 2.33847 37.2691C3.87146 36.6024 5.26155 35.6922 6.46976 34.5768Z" fill="white"/>
<path d="M11.3286 21.9873C11.4195 22.654 11.4585 23.2822 11.4585 23.8976C11.4585 27.3719 10.2503 30.9617 8.13267 33.7565C5.92412 36.6796 3.04001 38.3078 0 38.3976V41.0001C12.1081 39.0129 20.3317 32.2694 20.5265 13.5129C20.2797 14.9488 19.7341 16.2822 18.9416 17.4617C17.2657 19.9488 14.5115 21.6796 11.3286 21.9873Z" fill="white"/>
<path d="M10.2633 0C5.6383 0 1.6759 3.0641 0 7.03846C0 7.03846 2.07864 7.29487 3.87146 7.75641C4.4301 7.89744 4.96275 8.0641 5.39147 8.25641C6.95044 8.92308 8.13267 9.46154 8.95113 9.84615C9.80857 10.2436 10.2503 10.4744 10.2503 10.4744C10.2503 10.4744 10.7699 10.1923 11.6404 9.79487C12.5238 9.37179 13.771 8.80769 15.1741 8.26923C15.6417 8.08974 16.1744 7.92308 16.72 7.78205C18.5648 7.29487 20.5135 7.05128 20.5135 7.05128C18.8506 3.0641 14.8882 0 10.2633 0Z" fill="white"/>
</g>
<defs>
<clipPath id="clip0_1_804">
<rect width="21" height="41" fill="white"/>
</clipPath>
</defs>
</svg>
