<svg width="417" height="314" viewBox="0 0 417 314" fill="none" xmlns="http://www.w3.org/2000/svg">
<path d="M175.913 176.133L144.381 110.549H130.477V176.133H91.2475V0H161.016C195.776 0 218.122 23.8488 218.122 55.1503C218.122 78.9991 204.963 97.1341 183.362 104.835L219.115 176.133H175.913ZM130.477 76.7633H153.567C169.706 76.7633 178.396 67.82 178.396 55.3987C178.396 42.2322 169.706 34.0342 153.567 34.0342H130.477V76.7633Z" fill="white"/>
<path d="M231.795 94.4635H278.97V46.0207H310.75V94.4635H357.676V125.268H310.75V173.711H278.97V125.268H231.795V94.4635Z" fill="white"/>
<path d="M328.441 251.548H323.049V233.91H328.192V235.933C329.079 234.371 331.349 233.377 333.265 233.377C335.783 233.377 337.592 234.406 338.479 236.145C339.862 234.158 341.564 233.377 343.941 233.377C347.275 233.377 350.467 235.329 350.467 240.12V251.548H345.253V241.327C345.253 239.659 344.367 238.346 342.451 238.346C340.536 238.346 339.507 239.801 339.507 241.362V251.548H334.187V241.327C334.187 239.659 333.3 238.346 331.349 238.346C329.469 238.346 328.441 239.801 328.441 241.398V251.548Z" fill="white"/>
<path d="M371.304 240.617H378.363C378.292 239.269 377.37 237.636 374.816 237.636C372.546 237.636 371.411 239.304 371.304 240.617ZM378.753 245.195L383.257 246.473C382.406 249.525 379.604 252.08 375.135 252.08C370.276 252.08 365.948 248.602 365.948 242.675C365.948 236.997 370.169 233.377 374.745 233.377C380.207 233.377 383.577 236.749 383.577 242.427C383.577 243.172 383.506 243.989 383.47 244.095H371.198C371.304 246.082 373.113 247.502 375.206 247.502C377.157 247.502 378.256 246.579 378.753 245.195Z" fill="white"/>
<path d="M416.858 225.854V248.389C416.858 249.986 416.965 251.157 417 251.548H411.821C411.786 251.335 411.68 250.554 411.68 249.844C410.864 251.051 409.09 251.938 406.962 251.938C401.996 251.938 398.237 248.105 398.237 242.675C398.237 237.423 401.784 233.484 406.785 233.484C409.8 233.484 411.112 234.619 411.538 235.294V225.854H416.858ZM403.664 242.711C403.664 245.621 405.543 247.112 407.636 247.112C409.729 247.112 411.609 245.621 411.609 242.711C411.609 239.765 409.729 238.346 407.636 238.346C405.543 238.346 403.664 239.765 403.664 242.711Z" fill="white"/>
<path d="M2.37424 242.212H14.3585C14.2454 238.894 12.135 236.216 8.36637 236.216C5.01228 236.216 2.56267 238.894 2.37424 242.212ZM14.6223 246.85L16.6197 247.566C15.6021 250.621 12.8887 253.147 8.74323 253.147C3.99475 253.147 0 249.64 0 243.607C0 237.989 3.84401 234.18 8.32868 234.18C13.5671 234.18 16.7327 237.989 16.7327 243.268C16.7327 243.569 16.7327 243.796 16.695 244.097H2.29887V244.248C2.29887 248.358 5.2384 251.111 8.74323 251.111C11.9466 251.111 13.8686 249.225 14.6223 246.85Z" fill="white"/>
<path d="M32.7176 247.943L34.7904 247.227C35.1295 249.452 36.7501 251.186 39.7273 251.186C41.9885 251.186 43.722 249.904 43.722 247.981C43.722 246.322 42.5914 245.417 40.6694 244.965L37.7676 244.286C35.0919 243.682 33.3583 242.099 33.3583 239.497C33.3583 236.594 36.1471 234.218 39.4258 234.218C43.6467 234.218 45.3425 236.707 45.8701 238.856L43.8728 239.61C43.5713 237.876 42.2523 236.179 39.4258 236.179C37.4284 236.179 35.5818 237.423 35.5818 239.346C35.5818 240.817 36.5239 241.797 38.4083 242.212L41.2724 242.853C44.2873 243.569 45.9455 245.228 45.9455 247.83C45.9455 250.508 43.722 253.147 39.6896 253.147C35.318 253.147 33.0191 250.357 32.7176 247.943Z" fill="white"/>
<path d="M67.2554 228.977V234.67H71.9285V236.707H67.2554V247.566C67.2554 249.716 68.2729 250.809 70.308 250.809C70.9486 250.809 71.5893 250.658 71.9285 250.508V252.506C71.627 252.657 70.7979 252.845 69.705 252.845C66.8031 252.845 64.9942 251.111 64.9942 247.793V236.707H61.1879V234.67H62.5446C64.3158 234.67 65.0696 233.879 65.0696 232.031V228.977H67.2554Z" fill="white"/>
<path d="M97.9368 234.633V237.008C97.4845 236.895 96.9569 236.82 96.3539 236.82C93.3013 236.82 91.0402 238.781 91.0402 242.891V252.657H88.779V234.67H91.0025V238.026C92.0954 235.5 94.1304 234.444 96.5424 234.444C97.1453 234.444 97.5976 234.52 97.9368 234.633Z" fill="white"/>
<path d="M118.702 253.109C114.934 253.109 112.823 250.621 112.823 248.019C112.823 244.965 114.896 243.192 118.212 242.702L122.998 241.986C124.544 241.722 124.883 241.118 124.883 240.251C124.883 237.838 123.338 236.179 120.36 236.179C117.496 236.179 115.612 237.762 115.31 240.364L113.2 239.912C113.615 236.48 116.479 234.218 120.323 234.218C124.996 234.218 127.144 237.008 127.144 240.477V249.565C127.144 251.035 127.257 251.903 127.408 252.657H125.184C125.071 252.242 124.958 251.035 124.958 249.565C124.167 251.262 121.943 253.109 118.702 253.109ZM118.966 251.186C122.433 251.186 124.883 248.924 124.883 245.304V243.268C124.77 243.381 124.28 243.607 123.564 243.72L118.551 244.474C116.441 244.776 115.122 245.945 115.122 247.906C115.122 249.565 116.441 251.186 118.966 251.186Z" fill="white"/>
<path d="M149.27 228.977V234.67H153.943V236.707H149.27V247.566C149.27 249.716 150.288 250.809 152.323 250.809C152.964 250.809 153.604 250.658 153.943 250.508V252.506C153.642 252.657 152.813 252.845 151.72 252.845C148.818 252.845 147.009 251.111 147.009 247.793V236.707H143.203V234.67H144.559C146.331 234.67 147.084 233.879 147.084 232.031V228.977H149.27Z" fill="white"/>
<path d="M183.343 227.167L178.896 232.408H177.05L180.404 227.167H183.343ZM171.924 242.212H183.909C183.796 238.894 181.685 236.216 177.917 236.216C174.562 236.216 172.113 238.894 171.924 242.212ZM184.172 246.85L186.17 247.566C185.152 250.621 182.439 253.147 178.293 253.147C173.545 253.147 169.55 249.64 169.55 243.607C169.55 237.989 173.394 234.18 177.879 234.18C183.117 234.18 186.283 237.989 186.283 243.268C186.283 243.569 186.283 243.796 186.245 244.097H171.849V244.248C171.849 248.358 174.789 251.111 178.293 251.111C181.497 251.111 183.419 249.225 184.172 246.85Z" fill="white"/>
<path d="M202.569 253.675L204.717 253.147C205.019 255.975 207.318 258.313 210.483 258.313C215.194 258.313 216.664 255.108 216.664 251.375V248.057C215.873 249.866 213.875 251.714 210.596 251.714C205.886 251.714 202.569 247.981 202.569 242.966C202.569 238.064 205.81 234.256 210.596 234.256C213.951 234.256 215.797 235.915 216.702 237.762V234.67H218.925V251.337C218.925 255.523 217.079 260.311 210.446 260.311C206.112 260.311 202.984 257.446 202.569 253.675ZM210.86 249.753C214.403 249.753 216.739 246.888 216.739 242.966C216.739 239.082 214.403 236.216 210.86 236.216C207.242 236.216 204.83 239.044 204.83 242.966C204.83 246.888 207.242 249.753 210.86 249.753Z" fill="white"/>
<path d="M240.012 252.657H237.75V234.67H240.012V252.657ZM236.997 227.204C236.997 226.111 237.826 225.319 238.881 225.319C239.936 225.319 240.765 226.111 240.765 227.204C240.765 228.298 239.936 229.09 238.881 229.09C237.826 229.09 236.997 228.298 236.997 227.204Z" fill="white"/>
<path d="M263.404 253.109C259.636 253.109 257.525 250.621 257.525 248.019C257.525 244.965 259.598 243.192 262.915 242.702L267.701 241.986C269.246 241.722 269.585 241.118 269.585 240.251C269.585 237.838 268.04 236.179 265.063 236.179C262.198 236.179 260.314 237.762 260.013 240.364L257.902 239.912C258.317 236.48 261.181 234.218 265.025 234.218C269.698 234.218 271.846 237.008 271.846 240.477V249.565C271.846 251.035 271.959 251.903 272.11 252.657H269.887C269.773 252.242 269.66 251.035 269.66 249.565C268.869 251.262 266.646 253.109 263.404 253.109ZM263.668 251.186C267.135 251.186 269.585 248.924 269.585 245.304V243.268C269.472 243.381 268.982 243.607 268.266 243.72L263.254 244.474C261.143 244.776 259.824 245.945 259.824 247.906C259.824 249.565 261.143 251.186 263.668 251.186Z" fill="white"/>
<path d="M82.1893 302.049C79.6621 302.049 77.5606 304.019 77.5606 307.319C77.5606 310.513 79.6355 312.563 82.1893 312.563C84.6101 312.563 85.887 310.833 86.3127 309.449L87.7226 310.034C87.0841 312.004 85.2486 314 82.1893 314C78.5981 314 75.9644 311.232 75.9644 307.319C75.9644 303.38 78.6247 300.612 82.1893 300.612C85.222 300.612 87.0575 302.475 87.6162 304.604L86.2063 305.19C85.7806 303.699 84.6367 302.049 82.1893 302.049Z" fill="white"/>
<path d="M99.4886 311.871V311.684C98.8768 312.935 97.52 314 95.4983 314C92.306 314 90.7631 311.604 90.7631 308.943V300.958H92.3592V308.677C92.3592 310.699 93.3169 312.563 95.7909 312.563C98.0521 312.563 99.3822 310.833 99.3822 308.703V300.958H100.978V311.232C100.978 312.19 101.058 313.095 101.138 313.654H99.6216C99.5418 313.361 99.4886 312.696 99.4886 311.871Z" fill="white"/>
<path d="M106.859 313.654H105.263V300.958H106.859V313.654ZM104.731 295.688C104.731 294.916 105.316 294.357 106.061 294.357C106.806 294.357 107.391 294.916 107.391 295.688C107.391 296.459 106.806 297.018 106.061 297.018C105.316 297.018 104.731 296.459 104.731 295.688Z" fill="white"/>
<path d="M111.826 307.293C111.826 310.274 113.529 312.563 116.216 312.563C118.849 312.563 120.525 310.274 120.525 307.293C120.525 304.285 118.849 302.049 116.242 302.049C113.582 302.049 111.826 304.232 111.826 307.293ZM120.525 311.658V311.152C119.967 312.43 118.557 314 116.083 314C112.518 314 110.23 311.046 110.23 307.293C110.23 303.566 112.571 300.612 116.083 300.612C118.77 300.612 120.073 302.289 120.499 303.353V294.437H122.095V311.232C122.095 312.589 122.201 313.521 122.228 313.654H120.658C120.578 313.335 120.525 312.589 120.525 311.658Z" fill="white"/>
<path d="M129.602 313.973C126.942 313.973 125.452 312.217 125.452 310.38C125.452 308.224 126.916 306.973 129.257 306.627L132.635 306.121C133.726 305.935 133.965 305.509 133.965 304.897C133.965 303.194 132.874 302.022 130.773 302.022C128.751 302.022 127.421 303.14 127.208 304.977L125.718 304.657C126.011 302.235 128.033 300.638 130.746 300.638C134.045 300.638 135.561 302.608 135.561 305.057V311.471C135.561 312.509 135.641 313.122 135.747 313.654H134.178C134.098 313.361 134.018 312.509 134.018 311.471C133.46 312.669 131.89 313.973 129.602 313.973ZM129.789 312.616C132.236 312.616 133.965 311.019 133.965 308.464V307.026C133.885 307.106 133.54 307.266 133.034 307.346L129.496 307.878C128.006 308.091 127.075 308.916 127.075 310.3C127.075 311.471 128.006 312.616 129.789 312.616Z" fill="white"/>
<path d="M141.281 306.068V313.654H139.685V300.958H141.228V302.981C141.946 301.623 143.409 300.638 145.351 300.638C148.33 300.638 149.847 302.741 149.847 305.376V313.654H148.25V305.642C148.25 303.646 147.266 302.076 144.819 302.076C142.611 302.076 141.281 303.912 141.281 306.068Z" fill="white"/>
<path d="M154.691 307.293C154.691 310.274 156.394 312.563 159.08 312.563C161.714 312.563 163.39 310.274 163.39 307.293C163.39 304.285 161.714 302.049 159.107 302.049C156.447 302.049 154.691 304.232 154.691 307.293ZM163.39 311.658V311.152C162.831 312.43 161.421 314 158.947 314C155.383 314 153.095 311.046 153.095 307.293C153.095 303.566 155.436 300.612 158.947 300.612C161.634 300.612 162.938 302.289 163.363 303.353V294.437H164.96V311.232C164.96 312.589 165.066 313.521 165.093 313.654H163.523C163.443 313.335 163.39 312.589 163.39 311.658Z" fill="white"/>
<path d="M174.675 314C171.164 314 168.37 311.258 168.37 307.319C168.37 303.327 171.11 300.638 174.675 300.638C178.187 300.638 180.98 303.327 180.98 307.319C180.98 311.258 178.187 314 174.675 314ZM169.993 307.319C169.993 310.62 172.201 312.563 174.675 312.563C177.149 312.563 179.357 310.62 179.357 307.319C179.357 303.992 177.149 302.076 174.675 302.076C172.201 302.076 169.993 303.992 169.993 307.319Z" fill="white"/>
<path d="M191.97 307.293C191.97 310.274 193.673 312.563 196.36 312.563C198.993 312.563 200.669 310.274 200.669 307.293C200.669 304.285 198.993 302.049 196.386 302.049C193.726 302.049 191.97 304.232 191.97 307.293ZM200.669 311.658V311.152C200.111 312.43 198.701 314 196.227 314C192.662 314 190.374 311.046 190.374 307.293C190.374 303.566 192.715 300.612 196.227 300.612C198.914 300.612 200.217 302.289 200.643 303.353V294.437H202.239V311.232C202.239 312.589 202.345 313.521 202.372 313.654H200.802C200.723 313.335 200.669 312.589 200.669 311.658Z" fill="white"/>
<path d="M211.954 314C208.443 314 205.65 311.258 205.65 307.319C205.65 303.327 208.39 300.638 211.954 300.638C215.466 300.638 218.259 303.327 218.259 307.319C218.259 311.258 215.466 314 211.954 314ZM207.272 307.319C207.272 310.62 209.48 312.563 211.954 312.563C214.428 312.563 216.636 310.62 216.636 307.319C216.636 303.992 214.428 302.076 211.954 302.076C209.48 302.076 207.272 303.992 207.272 307.319Z" fill="white"/>
<path d="M227.467 310.327L228.931 309.821C229.17 311.392 230.314 312.616 232.415 312.616C234.012 312.616 235.235 311.711 235.235 310.353C235.235 309.182 234.437 308.544 233.08 308.224L231.032 307.745C229.143 307.319 227.92 306.201 227.92 304.365C227.92 302.315 229.888 300.638 232.203 300.638C235.182 300.638 236.379 302.395 236.752 303.912L235.342 304.445C235.129 303.22 234.198 302.022 232.203 302.022C230.793 302.022 229.489 302.901 229.489 304.258C229.489 305.296 230.154 305.988 231.484 306.281L233.506 306.734C235.634 307.239 236.805 308.41 236.805 310.247C236.805 312.137 235.235 314 232.389 314C229.303 314 227.68 312.03 227.467 310.327Z" fill="white"/>
<path d="M241.02 306.281H249.479C249.4 303.939 247.91 302.049 245.25 302.049C242.882 302.049 241.153 303.939 241.02 306.281ZM249.666 309.555L251.076 310.061C250.357 312.217 248.442 314 245.516 314C242.164 314 239.344 311.525 239.344 307.266C239.344 303.3 242.057 300.612 245.223 300.612C248.921 300.612 251.155 303.3 251.155 307.026C251.155 307.239 251.155 307.399 251.129 307.612H240.967V307.718C240.967 310.62 243.042 312.563 245.516 312.563C247.777 312.563 249.134 311.232 249.666 309.555Z" fill="white"/>
<path d="M263.024 311.871V311.684C262.412 312.935 261.055 314 259.034 314C255.841 314 254.299 311.604 254.299 308.943V300.958H255.895V308.677C255.895 310.699 256.852 312.563 259.326 312.563C261.588 312.563 262.918 310.833 262.918 308.703V300.958H264.514V311.232C264.514 312.19 264.594 313.095 264.673 313.654H263.157C263.077 313.361 263.024 312.696 263.024 311.871Z" fill="white"/>
<path d="M281.332 302.395H277.794V313.654H276.198V302.395H273.591V300.958H276.198V298.323C276.198 295.634 277.847 294.224 279.976 294.224C280.641 294.224 281.12 294.357 281.412 294.49V295.927C281.173 295.821 280.774 295.714 280.215 295.714C278.938 295.714 277.794 296.38 277.794 298.402V300.958H281.332V302.395Z" fill="white"/>
<path d="M292.51 311.871V311.684C291.898 312.935 290.541 314 288.52 314C285.327 314 283.784 311.604 283.784 308.943V300.958H285.38V308.677C285.38 310.699 286.338 312.563 288.812 312.563C291.073 312.563 292.403 310.833 292.403 308.703V300.958H294V311.232C294 312.19 294.079 313.095 294.159 313.654H292.643C292.563 313.361 292.51 312.696 292.51 311.871Z" fill="white"/>
<path d="M300.865 296.939V300.958H304.163V302.395H300.865V310.061C300.865 311.578 301.583 312.35 303.019 312.35C303.472 312.35 303.924 312.243 304.163 312.137V313.547C303.95 313.654 303.365 313.787 302.594 313.787C300.545 313.787 299.268 312.563 299.268 310.22V302.395H296.582V300.958H297.539C298.79 300.958 299.322 300.399 299.322 299.095V296.939H300.865Z" fill="white"/>
<path d="M315.579 311.871V311.684C314.967 312.935 313.61 314 311.589 314C308.396 314 306.853 311.604 306.853 308.943V300.958H308.449V308.677C308.449 310.699 309.407 312.563 311.881 312.563C314.142 312.563 315.472 310.833 315.472 308.703V300.958H317.069V311.232C317.069 312.19 317.148 313.095 317.228 313.654H315.712C315.632 313.361 315.579 312.696 315.579 311.871Z" fill="white"/>
<path d="M327.817 300.931V302.608C327.498 302.528 327.126 302.475 326.7 302.475C324.545 302.475 322.949 303.859 322.949 306.76V313.654H321.353V300.958H322.923V303.327C323.694 301.543 325.131 300.798 326.833 300.798C327.259 300.798 327.578 300.851 327.817 300.931Z" fill="white"/>
<path d="M335.379 314C331.867 314 329.074 311.258 329.074 307.319C329.074 303.327 331.814 300.638 335.379 300.638C338.89 300.638 341.684 303.327 341.684 307.319C341.684 311.258 338.89 314 335.379 314ZM330.697 307.319C330.697 310.62 332.905 312.563 335.379 312.563C337.853 312.563 340.061 310.62 340.061 307.319C340.061 303.992 337.853 302.076 335.379 302.076C332.905 302.076 330.697 303.992 330.697 307.319Z" fill="white"/>
</svg>
